<svg xmlns="http://www.w3.org/2000/svg" viewBox="0 0 18 18"><defs><style>.cls-1{fill:none;}</style></defs><g id="Layer_2" data-name="Layer 2"><g id="Layer_1-2" data-name="Layer 1"><path d="M9,.58A6.29,6.29,0,0,1,15.09,5.3,5.74,5.74,0,0,1,14.41,10c-.94,1.48-1.95,2.92-2.93,4.37-.59.87-1.2,1.73-1.8,2.59a.75.75,0,0,1-1.14.25.67.67,0,0,1-.2-.21c-1.48-2.14-3-4.28-4.42-6.43A6.49,6.49,0,0,1,2.85,8.32a6.08,6.08,0,0,1,.51-4.23A6.22,6.22,0,0,1,8.13.64C8.42.6,8.71.6,9,.58Zm0,9A2.67,2.67,0,0,0,9,4.22,2.66,2.66,0,0,0,6.33,6.89,2.63,2.63,0,0,0,9,9.55Z"/><rect class="cls-1" width="18" height="18"/></g></g></svg>